<svg width="147" height="143" viewBox="0 0 147 143" fill="yellow" xmlns="http://www.w3.org/2000/svg">
<path fill-rule="evenodd" clip-rule="evenodd" d="M66.5857 54.3911C65.0526 53.9236 52.5045 55.5793 50.7798 56.5834C48.9478 64.0188 52.3129 94.0668 52.9261 96.742L70.4337 96.2897C70.6023 92.1351 69.6058 67.1615 67.7355 57.9632C67.1223 54.9201 66.6623 54.5598 66.5857 54.3911ZM67.1529 54.1918C70.0887 58.791 70.9396 92.2884 70.6713 96.42C70.6703 96.4351 70.6664 96.4499 70.6597 96.4635C70.653 96.4771 70.6437 96.4892 70.6323 96.4992C70.6209 96.5091 70.6076 96.5168 70.5933 96.5216C70.5789 96.5264 70.5638 96.5284 70.5486 96.5273L52.7728 97.1865C52.5045 97.1865 52.4585 96.9642 52.1213 94.5957C51.1018 87.4439 48.4649 63.3596 50.2126 56.3841C50.2583 56.2492 50.3508 56.135 50.4732 56.0622C51.9066 55.1194 65.7348 53.1034 66.9613 53.9159C67.0125 53.9439 67.0564 53.9834 67.0897 54.0313C67.1229 54.0791 67.1446 54.1341 67.1529 54.1918ZM79.0188 68.0737C77.0182 73.5467 76.313 90.1575 76.5889 95.8988L93.3836 96.1441C93.9432 92.1428 95.1006 71.4235 93.077 67.6675C92.732 67.1002 79.6397 67.3532 79.0188 68.0737ZM93.6442 67.4682C95.6909 71.5691 94.5717 92.1504 93.8359 96.4354C93.825 96.4942 93.7936 96.5473 93.7473 96.5852C93.701 96.6231 93.6427 96.6433 93.5829 96.6423L76.5046 96.1364C76.336 96.1364 76.3053 95.9754 76.2593 94.3351C76.0983 88.2795 76.4356 73.5238 78.5052 67.8208C78.6202 67.5065 79.1721 67.3915 79.5247 67.3225C82.1923 66.7859 90.7084 66.556 92.916 66.9776C93.2073 67.0542 93.5829 67.1615 93.6289 67.4682H93.6442ZM141.874 60.922C140.027 60.3777 129.441 60.646 127.831 61.3512C125.662 67.3685 125.149 90.7554 125.34 97.1636C130.859 97.6932 136.411 97.7804 141.943 97.4242C142.411 94.0208 143.622 70.5956 142.426 62.9916C142.354 62.2767 142.168 61.578 141.874 60.922ZM142.457 60.7533C144.542 65.0229 143.07 93.5762 142.365 97.6771C142.355 97.727 142.33 97.7725 142.293 97.807C142.256 97.8415 142.208 97.8631 142.158 97.8688C136.51 98.1896 130.846 98.0306 125.225 97.3935C124.719 97.2402 124.765 68.0737 127.31 61.106C127.425 60.784 127.977 60.6767 128.33 60.6077C130.967 60.0711 139.498 59.8412 141.721 60.2628C142.058 60.3164 142.472 60.4391 142.488 60.7533H142.457ZM119.898 52.7968C118.365 52.1375 104.836 52.4058 102.889 53.2797C100.282 60.3701 99.8225 89.8432 100.175 97.1942L119.691 97.3859C120.312 93.032 121.952 64.54 120.58 55.357C120.524 54.4669 120.292 53.5968 119.898 52.7968ZM120.496 52.6588C123.079 57.7869 120.856 93.2849 120.105 97.6465C120.096 97.6993 120.069 97.7474 120.028 97.7824C119.988 97.8173 119.936 97.8371 119.883 97.8381L100.091 97.4318C99.9144 97.4318 99.8838 97.2479 99.8148 94.6647C99.6232 86.961 99.7151 60.1708 102.367 53.0344C102.427 52.9033 102.534 52.7993 102.666 52.7431C104.291 51.9229 119.124 51.3863 120.296 52.3598C120.352 52.3896 120.399 52.4324 120.433 52.4845C120.468 52.5366 120.49 52.5965 120.496 52.6588Z" fill="black"/>
<path fill-rule="evenodd" clip-rule="evenodd" d="M55.8771 59.9946C54.8265 59.8028 53.7442 59.8847 52.7343 60.2322C52.7347 61.159 52.8091 62.0843 52.9566 62.9994C53.9593 62.9715 54.9562 62.8379 55.9308 62.6008C55.986 62.269 56.0116 61.9329 56.0074 61.5966C56.0195 61.1156 56.0016 60.6343 55.9538 60.1555C55.9461 60.0329 55.9538 60.0329 55.8771 59.9946ZM52.5197 60.1555C52.5197 60.1555 52.3971 61.6886 52.4354 62.5778C52.4737 63.3443 52.4737 63.5973 54.1678 63.4133C54.8848 63.3485 55.592 63.2019 56.2757 62.9764C56.4214 62.8844 56.452 62.6774 56.4827 62.4321C56.5363 61.9875 56.6207 59.9792 56.2987 59.665C55.6242 59.0364 52.5274 59.8029 52.5197 60.1555ZM105.395 58.0246C105.318 58.9428 105.318 59.8658 105.395 60.7841H105.786C106.64 60.7942 107.493 60.7404 108.338 60.6231C108.508 59.8034 108.595 58.9689 108.599 58.1319C108.185 57.8559 105.847 57.7716 105.395 58.0246ZM105.157 57.9403C105.157 57.9403 104.881 59.4733 104.835 60.3395C104.789 61.2057 104.835 61.3896 106.499 61.3667C107.226 61.3757 107.952 61.2985 108.66 61.1367C108.814 61.0524 108.875 60.8607 108.929 60.5925C109.028 60.1402 109.304 58.1472 109.005 57.7946C108.392 57.0894 105.211 57.5417 105.157 57.9403ZM113.812 57.9939C113.735 58.9122 113.735 59.8352 113.812 60.7534C113.942 60.7624 114.072 60.7624 114.202 60.7534C115.056 60.7636 115.909 60.7098 116.755 60.5925C116.928 59.7734 117.016 58.9384 117.016 58.1012C116.579 57.787 114.279 57.741 113.812 57.9939ZM113.582 57.9173C113.431 58.7109 113.321 59.5117 113.252 60.3165C113.252 61.083 113.252 61.359 114.915 61.3437C115.642 61.3455 116.367 61.2683 117.077 61.1137C117.238 61.0294 117.292 60.8377 117.345 60.5618C117.445 60.1095 117.721 58.1166 117.422 57.764C116.809 57.0894 113.628 57.5187 113.582 57.9173ZM113.727 66.1498C113.654 67.0682 113.654 67.9909 113.727 68.9093H114.118C114.972 68.9207 115.825 68.8695 116.671 68.756C116.843 67.9368 116.93 67.1019 116.931 66.2648C116.525 65.9428 114.21 65.8968 113.727 66.1498ZM113.497 66.0655C113.347 66.8592 113.237 67.6599 113.168 68.4647C113.129 69.2313 113.168 69.5149 114.831 69.4919C115.558 69.4979 116.283 69.4207 116.993 69.2619C117.154 69.1776 117.207 68.986 117.261 68.7177C117.361 68.2654 117.636 66.2724 117.338 65.9198C116.724 65.1993 113.513 65.6669 113.513 66.0655H113.497ZM113.283 74.9879C113.235 75.9083 113.261 76.831 113.359 77.7474H113.75C114.604 77.7261 115.454 77.6416 116.295 77.4945C116.438 76.6671 116.492 75.8268 116.456 74.9879C116.065 74.666 113.758 74.7196 113.283 74.9879ZM113.045 74.9112C113.045 74.9112 112.83 76.4443 112.815 77.3258C112.8 78.2073 112.815 78.3683 114.517 78.284C115.244 78.2616 115.967 78.1562 116.671 77.9697C116.824 77.8777 116.87 77.6861 116.916 77.4101C117 76.9579 117.192 74.9496 116.916 74.6123C116.241 73.9531 113.083 74.5126 113.045 74.9112ZM105.081 83.757C105.029 84.6774 105.055 85.6004 105.157 86.5165H105.548C106.401 86.4912 107.252 86.4067 108.093 86.2636C108.228 85.4353 108.282 84.5958 108.254 83.757C107.84 83.4351 105.525 83.4811 105.081 83.757ZM104.843 83.6804C104.725 84.4808 104.648 85.2867 104.613 86.0949C104.613 86.8615 104.613 87.1374 106.315 87.0531C107.04 87.0313 107.76 86.9259 108.461 86.7388C108.614 86.6468 108.668 86.4552 108.714 86.1792C108.791 85.727 108.99 83.7187 108.714 83.3814C108.017 82.6915 104.851 83.2818 104.82 83.6804H104.843ZM105.134 91.9436C105.087 92.864 105.112 93.7867 105.211 94.7031C105.341 94.7108 105.472 94.7108 105.602 94.7031C106.456 94.6805 107.306 94.5933 108.147 94.4424C108.282 93.6168 108.336 92.7798 108.308 91.9436C107.917 91.6293 105.61 91.6753 105.134 91.9436ZM104.897 91.8746C104.897 91.8746 104.682 93.4076 104.667 94.2815C104.651 95.1553 104.667 95.3316 106.368 95.2473C107.096 95.2212 107.818 95.1158 108.522 94.933C108.676 94.841 108.722 94.6417 108.768 94.3735C108.852 93.9212 109.044 91.9129 108.768 91.5756C108.093 90.8781 104.935 91.4683 104.897 91.8746ZM113.168 83.4504C113.12 84.3708 113.146 85.2935 113.244 86.2099C113.374 86.2177 113.505 86.2177 113.635 86.2099C114.489 86.1873 115.34 86.1002 116.18 85.9493C116.323 85.1245 116.377 84.2867 116.341 83.4504C115.95 83.1514 113.643 83.1514 113.168 83.4504ZM112.93 83.3814C112.93 83.3814 112.715 84.9145 112.7 85.7883C112.685 86.6622 112.7 86.8385 114.402 86.7541C115.129 86.728 115.851 86.6227 116.556 86.4399C116.709 86.3479 116.755 86.1562 116.801 85.8803C116.885 85.428 117.077 83.4197 116.801 83.0825C116.126 82.3849 112.968 82.9828 112.93 83.3814ZM112.815 92.2962C112.713 93.2123 112.687 94.1353 112.738 95.0557H113.129C113.982 95.0813 114.835 95.0429 115.682 94.9407C115.868 94.1229 115.968 93.288 115.981 92.4495C115.605 92.1275 113.298 92.0509 112.815 92.2962ZM112.577 92.2118C112.577 92.2118 112.278 93.7449 112.217 94.6034C112.156 95.4619 112.171 95.6459 113.865 95.6536C114.591 95.6717 115.316 95.6075 116.027 95.4619C116.188 95.3776 116.241 95.186 116.31 94.9177C116.41 94.4654 116.717 92.4725 116.425 92.1199C115.812 91.3917 112.639 91.8132 112.577 92.2118ZM105.311 65.9658C105.238 66.8842 105.238 67.8069 105.311 68.7253H105.702C106.555 68.7368 107.408 68.6855 108.254 68.572C108.427 67.7528 108.514 66.918 108.515 66.0808C108.147 65.7589 105.794 65.7129 105.311 65.9658ZM105.081 65.8815C105.081 65.8815 104.797 67.4146 104.751 68.2808C104.705 69.1469 104.751 69.3309 106.414 69.3079C107.142 69.3178 107.867 69.2406 108.576 69.0779C108.737 68.9936 108.791 68.802 108.852 68.5337C108.944 68.0815 109.22 66.0885 108.929 65.7359C108.308 65.0153 105.127 65.5212 105.081 65.8815ZM104.782 74.8576C104.782 75.7793 104.857 76.6996 105.004 77.6094C105.134 77.6192 105.265 77.6192 105.395 77.6094C106.247 77.5449 107.093 77.4142 107.925 77.2185C108.005 76.3875 108.005 75.5506 107.925 74.7196C107.549 74.3977 105.242 74.5663 104.782 74.8576ZM104.544 74.7963C104.544 74.7963 104.406 76.3293 104.437 77.2185C104.468 78.1077 104.506 78.261 106.192 78.0923C106.914 78.0293 107.626 77.8853 108.315 77.6631C108.469 77.5634 108.507 77.3718 108.538 77.0959C108.599 76.6359 108.691 74.6276 108.361 74.3057C107.687 73.6465 104.559 74.3977 104.544 74.7963ZM80.5058 71.7225C80.4329 72.6434 80.4329 73.5687 80.5058 74.4897H80.8967C81.751 74.4874 82.6041 74.4233 83.4492 74.298C83.6054 73.4744 83.6798 72.6374 83.6715 71.7991C83.3572 71.4925 81.004 71.4542 80.5058 71.7225ZM80.2758 71.6458C80.2758 71.6458 80.0152 73.1789 79.9768 74.0527C79.9385 74.9266 79.9768 75.0952 81.6555 75.0569C82.3836 75.0519 83.1088 74.9645 83.8172 74.7963C83.9705 74.7119 84.0241 74.5126 84.0778 74.252C84.1698 73.7998 84.4227 71.7915 84.1161 71.4465C83.4876 70.7413 80.3218 71.2549 80.2758 71.6535V71.6458ZM87.9258 71.4465C87.8529 72.3649 87.8529 73.2876 87.9258 74.206H88.3244C89.1763 74.2075 90.0271 74.1435 90.8692 74.0144C91.0318 73.1916 91.1088 72.3542 91.0992 71.5155C90.7773 71.2166 88.424 71.1782 87.9258 71.4465ZM87.6881 71.3622C87.6881 71.3622 87.4352 72.8953 87.3969 73.7691C87.3969 74.5356 87.3969 74.8193 89.0756 74.7733C89.8014 74.7725 90.5245 74.6851 91.2295 74.5127C91.3905 74.4283 91.4441 74.229 91.4978 73.9684C91.5898 73.5162 91.8351 71.5078 91.4978 71.1629C90.9076 70.4577 87.7341 70.9713 87.6881 71.3622ZM87.9488 79.5947C87.8797 80.5133 87.8797 81.4357 87.9488 82.3543H88.3474C89.1993 82.3561 90.0502 82.2921 90.8922 82.1626C91.0544 81.3423 91.1315 80.5075 91.1222 79.6714C90.8003 79.3648 88.447 79.3188 87.9488 79.5947ZM87.7111 79.5181C87.7111 79.5181 87.4582 81.0512 87.4199 81.9173C87.3815 82.7835 87.4199 82.9675 89.0986 82.9215C89.8238 82.9195 90.5465 82.8346 91.2525 82.6685C91.4135 82.5766 91.4671 82.3849 91.5208 82.1166C91.6128 81.672 91.8581 79.6637 91.5208 79.3188C90.9306 78.6059 87.7648 79.1195 87.7111 79.5181ZM80.0995 79.909C80.0267 80.8274 80.0267 81.7501 80.0995 82.6685H80.4904C81.3449 82.6703 82.1983 82.6062 83.043 82.4769C83.1988 81.6558 83.2733 80.8214 83.2653 79.9857C82.951 79.6791 80.5977 79.6407 80.0995 79.909ZM79.8695 79.8324C79.8695 79.8324 79.6089 81.3654 79.5706 82.2316C79.5323 83.0978 79.5706 83.2818 81.2493 83.2358C81.9771 83.2334 82.7022 83.1485 83.4109 82.9828C83.5642 82.8908 83.6179 82.6992 83.6715 82.4309C83.7635 81.9787 84.0165 79.978 83.7098 79.6331C83.0813 78.9202 79.9155 79.4338 79.8695 79.8324ZM80.2451 88.4405C80.1723 89.3589 80.1723 90.2816 80.2451 91.2H80.6361C81.4906 91.2018 82.3439 91.1377 83.1886 91.0084C83.3447 90.1848 83.4192 89.3477 83.4109 88.5095C83.0966 88.2105 80.7434 88.1722 80.2451 88.4405ZM80.0152 88.3562C80.0152 88.3562 79.7546 89.8893 79.7162 90.7631C79.7162 91.5296 79.7162 91.8132 81.3949 91.7673C82.1207 91.7665 82.8438 91.679 83.5489 91.5066C83.7098 91.4223 83.7635 91.223 83.8172 90.9624C83.9091 90.5101 84.1621 88.5018 83.8172 88.1569C83.2269 87.4517 80.0612 87.9653 80.0152 88.3562ZM87.5272 88.0189C87.4543 88.9399 87.4543 89.8651 87.5272 90.7861C87.6574 90.7939 87.7879 90.7939 87.9181 90.7861C88.7722 90.7851 89.6252 90.7236 90.4706 90.6021C90.6264 89.7785 90.7009 88.9415 90.6929 88.1032C90.3787 87.789 88.0254 87.7506 87.5272 88.0189ZM87.2972 87.9423C87.2972 87.9423 87.0366 89.4753 86.9983 90.3492C86.9599 91.223 86.9983 91.3917 88.677 91.3533C89.4025 91.3488 90.1252 91.2614 90.8309 91.0927C90.9919 91.0084 91.0455 90.8091 91.0992 90.5408C91.1912 90.0962 91.4441 88.0879 91.0992 87.743C90.5166 87.0378 87.3432 87.5513 87.2972 87.9423ZM129.939 65.2453C129.866 66.1662 129.866 67.0915 129.939 68.0125C130.924 68.0343 131.909 67.9728 132.883 67.8285C133.044 67.0054 133.121 66.1682 133.113 65.3296C132.814 65.023 130.438 64.977 129.939 65.2453ZM129.702 65.1686C129.564 65.9655 129.466 66.7688 129.41 67.5755C129.41 68.3421 129.41 68.618 131.089 68.5797C131.815 68.5752 132.537 68.4878 133.243 68.3191C133.404 68.2348 133.45 68.0355 133.504 67.7672C133.596 67.3149 133.849 65.3143 133.55 64.9693C132.921 64.2565 129.748 64.7547 129.702 65.1686ZM129.541 73.4318C129.464 74.3501 129.464 75.2731 129.541 76.1913C130.525 76.2171 131.51 76.1556 132.484 76.0074C132.639 75.1861 132.713 74.3518 132.706 73.5162C132.423 73.1866 130.039 73.1866 129.541 73.4318ZM129.311 73.3552C129.311 73.3552 129.05 74.8882 129.012 75.7544C128.973 76.6206 129.012 76.8046 130.691 76.7586C131.416 76.7571 132.139 76.6722 132.844 76.5056C133.005 76.4136 133.059 76.222 133.113 75.9537C133.205 75.5015 133.458 73.5008 133.151 73.1559C132.53 72.42 129.349 72.9566 129.311 73.3552ZM129.188 81.4344C129.115 82.3554 129.115 83.2806 129.188 84.2016C130.175 84.2237 131.163 84.1622 132.139 84.0176C132.294 83.1938 132.368 82.3569 132.362 81.5187C132.07 81.2121 129.686 81.1661 129.188 81.4344ZM128.95 81.3578C128.95 81.3578 128.698 82.8908 128.659 83.7647C128.621 84.6385 128.659 84.8072 130.338 84.7688C131.064 84.7648 131.786 84.6773 132.492 84.5082C132.653 84.4239 132.706 84.2246 132.76 83.964C132.852 83.5117 133.105 81.5034 132.76 81.1585C132.178 80.4533 128.996 80.9668 128.95 81.3578ZM129.134 88.9081C129.058 89.8289 129.058 90.7545 129.134 91.6753C130.119 91.6971 131.104 91.6356 132.078 91.4913C132.236 90.668 132.311 89.8307 132.3 88.9924C132.017 88.6858 129.61 88.6398 129.134 88.9081ZM128.904 88.8314C128.904 88.8314 128.644 90.3645 128.606 91.2383C128.567 92.1122 128.606 92.2808 130.284 92.2425C131.01 92.2385 131.733 92.151 132.438 91.9819C132.599 91.8976 132.653 91.6983 132.706 91.4376C132.798 90.9777 133.051 88.9771 132.745 88.6321C132.124 87.9269 128.943 88.4405 128.904 88.8314ZM136.271 88.8161C136.194 89.7343 136.194 90.6574 136.271 91.5756C137.255 91.5975 138.24 91.5359 139.214 91.3917C139.369 90.5704 139.443 89.7361 139.437 88.9004C139.153 88.5938 136.769 88.5172 136.271 88.8161ZM136.041 88.7395C136.041 88.7395 135.78 90.2725 135.742 91.1387C135.704 92.0049 135.742 92.1888 137.421 92.1429C138.146 92.1413 138.869 92.0565 139.575 91.8899C139.736 91.7979 139.789 91.6063 139.843 91.338C139.935 90.8857 140.188 88.8851 139.881 88.5402C139.26 87.8273 136.079 88.3409 136.041 88.7395ZM136.447 81.0052C136.374 81.9236 136.374 82.8463 136.447 83.7647C137.432 83.7865 138.416 83.725 139.391 83.5807C139.551 82.7602 139.628 81.9255 139.621 81.0895C139.322 80.7829 136.945 80.7369 136.447 81.0052ZM136.21 80.9285C136.072 81.7228 135.975 82.5236 135.918 83.3278C135.918 84.0943 135.918 84.3779 137.597 84.3319C138.322 84.3299 139.045 84.245 139.751 84.079C139.912 83.987 139.958 83.7953 140.012 83.527C140.104 83.0748 140.356 81.0741 140.058 80.7292C139.429 80.0163 136.256 80.5299 136.21 80.9285ZM137.275 73.1176C137.202 74.036 137.202 74.9587 137.275 75.8771C138.26 75.8989 139.244 75.8374 140.218 75.6931C140.38 74.8701 140.457 74.0328 140.448 73.1942C140.18 72.8876 137.804 72.8416 137.275 73.1176ZM137.037 73.0332C136.9 73.8301 136.803 74.6335 136.746 75.4402C136.746 76.2067 136.746 76.4903 138.425 76.4443C139.15 76.4423 139.873 76.3574 140.579 76.1913C140.74 76.0994 140.786 75.9001 140.839 75.6394C140.931 75.1872 141.184 73.1866 140.885 72.8416C140.287 72.1287 137.114 72.6423 137.068 73.0332H137.037ZM137.352 64.9693C137.279 65.8877 137.279 66.8105 137.352 67.7289C138.336 67.7507 139.321 67.6892 140.295 67.5449C140.453 66.7216 140.528 65.8843 140.517 65.046C140.234 64.7547 137.85 64.6934 137.352 64.9693ZM137.122 64.885C137.122 64.885 136.861 66.4181 136.823 67.2919C136.784 68.1658 136.823 68.3344 138.501 68.2961C139.23 68.2916 139.955 68.2041 140.663 68.0355C140.816 67.9511 140.87 67.7518 140.924 67.4912C141.016 67.039 141.269 65.0307 140.962 64.6857C140.341 63.9882 137.16 64.4941 137.122 64.885ZM53.4396 68.1045C53.4142 69.0344 53.4629 69.9648 53.5852 70.887C54.5876 70.8825 55.5868 70.7747 56.567 70.565C56.6331 70.2344 56.6665 69.898 56.6666 69.5609C56.6986 69.0503 56.6986 68.5383 56.6666 68.0278C56.6436 67.7212 53.9991 67.7365 53.4396 68.1045ZM53.2249 68.0431C53.2249 68.0431 53.064 69.5762 53.0869 70.4577C53.1099 71.3392 53.0869 71.4772 54.7886 71.3392C55.5087 71.2929 56.2211 71.1643 56.9119 70.9559C57.0576 70.864 57.0959 70.6417 57.1266 70.4194C57.1956 69.9748 57.3259 67.9665 57.0193 67.6445C56.36 66.9777 53.2403 67.6675 53.2249 68.0431ZM56.705 76.5286C55.6987 76.4641 54.6917 76.6429 53.7692 77.0499C53.8406 77.9724 53.9867 78.8875 54.2061 79.7864C55.2012 79.6787 56.1825 79.468 57.1342 79.1578C57.166 78.8239 57.166 78.4876 57.1342 78.1537C57.1126 77.683 57.0588 77.2143 56.9733 76.7509C56.9503 76.567 56.9503 76.5516 56.705 76.5286ZM53.5469 77.0115C53.5469 77.0115 53.5469 78.5446 53.6618 79.4261C53.7538 80.1926 53.7922 80.4379 55.4479 80.1237C56.1576 80.0009 56.8517 79.8004 57.5175 79.5258C57.6555 79.4184 57.6708 79.2115 57.6785 78.9662C57.6785 78.5216 57.6248 76.5056 57.2799 76.222C56.5593 75.6241 53.5392 76.6359 53.5469 77.0192V77.0115ZM57.8471 85.451C56.8356 85.3531 55.8155 85.5003 54.873 85.8803C54.9104 86.8056 55.0258 87.7262 55.2179 88.6321C56.2174 88.555 57.2063 88.3751 58.169 88.0956C58.1968 87.7614 58.1968 87.4256 58.169 87.0914C58.1599 86.6066 58.1215 86.1228 58.0541 85.6427C58.0771 85.589 58.1077 85.52 57.8471 85.451ZM54.6507 85.842C54.6507 85.842 54.6047 87.375 54.689 88.2565C54.758 89.0231 54.7733 89.276 56.452 89.0231C57.1667 88.9231 57.8683 88.7457 58.5446 88.4942C58.675 88.3945 58.698 88.1799 58.7209 87.9346C58.7209 87.49 58.7209 85.474 58.4067 85.1828C57.7015 84.5695 54.6507 85.4894 54.6507 85.865V85.842ZM61.1202 59.389C61.1269 60.3108 61.2038 61.2307 61.3501 62.1408C62.3343 62.0837 63.3116 61.9401 64.2706 61.7116C64.3551 60.8782 64.3551 60.0384 64.2706 59.205C63.941 58.9367 61.5954 59.0977 61.1202 59.389ZM60.8826 59.3277C60.8826 59.3277 60.7523 60.8607 60.7906 61.7499C60.8289 62.6391 60.8519 62.7924 62.5459 62.6161C63.2678 62.5505 63.9801 62.404 64.6692 62.1792C64.8225 62.0795 64.8532 61.8726 64.8915 61.6043C64.9452 61.152 65.0295 59.136 64.6922 58.8141C64.01 58.1702 60.8979 58.9521 60.8826 59.343V59.3277ZM64.6846 67.2689C63.7351 67.1255 62.7655 67.1989 61.8484 67.4836C61.8289 68.4062 61.8828 69.3289 62.0094 70.2431H62.4003C63.2538 70.1999 64.1024 70.0871 64.9375 69.9058C65.0449 69.1442 65.0732 68.3736 65.0218 67.6062C65.0065 67.3763 65.1062 67.3456 64.6846 67.2689ZM61.6184 67.4222C61.6184 67.4222 61.4498 68.9553 61.4651 69.8368C61.4805 70.7183 61.5111 70.8793 63.1975 70.7413C63.9229 70.698 64.6408 70.5694 65.3361 70.3581C65.4894 70.2661 65.5277 70.0668 65.5737 69.7985C65.6351 69.3386 65.773 67.3226 65.4511 67.0006C64.7689 66.3261 61.6261 67.0543 61.6031 67.4222H61.6184ZM65.0525 75.9691C64.0934 75.8811 63.1269 76.0095 62.224 76.3447C62.2634 77.2665 62.3736 78.1839 62.5536 79.0888C63.5328 78.9919 64.5021 78.8124 65.4511 78.5523C65.5167 77.7863 65.5013 77.0154 65.4051 76.2527C65.3744 76.0534 65.4741 76.015 65.0525 75.9691ZM61.9864 76.2987C61.9864 76.2987 61.9021 77.8317 61.9864 78.7209C62.0707 79.6101 62.086 79.7634 63.7724 79.4874C64.4926 79.3989 65.2001 79.2265 65.8803 78.9739C66.026 78.8742 66.0566 78.6749 66.0796 78.399C66.118 77.939 66.1333 75.9231 65.796 75.6165C65.0602 75.0109 61.9864 75.9077 61.9864 76.2987ZM63.0212 84.5695C62.9483 85.4905 62.9483 86.4158 63.0212 87.3367C63.9577 87.3594 64.8943 87.2952 65.819 87.1451H65.9647C66.1163 86.3236 66.1856 85.4891 66.1716 84.6538C65.8497 84.3089 63.5118 84.3012 63.0212 84.5695ZM62.7836 84.4929C62.7836 84.4929 62.5383 86.0259 62.5076 86.8998C62.4769 87.7736 62.5076 87.9499 64.194 87.8963C64.92 87.8848 65.6425 87.7923 66.3479 87.6203C66.5089 87.5283 66.5549 87.3367 66.6085 87.0684C66.7005 86.6162 66.9305 84.6079 66.6085 84.2629C65.9877 83.55 62.8296 84.1096 62.7836 84.4929Z" fill="black"/>
<path fill-rule="evenodd" clip-rule="evenodd" d="M146.32 41.5517C142.963 39.6354 116.372 24.6421 114.747 23.8449C114.386 23.6431 113.999 23.491 113.597 23.3926C112.922 23.3926 105.165 27.4859 84.1545 38.501C81.7859 36.1477 63.9028 19.2074 59.8555 15.4207C60.7364 14.1653 61.4695 12.8123 62.0401 11.3888C62.0542 11.3138 62.043 11.2362 62.0083 11.1683C61.9737 11.1003 61.9174 11.0458 61.8485 11.0132C60.4687 10.0703 49.6683 8.14634 47.8516 9.42645C47.4147 9.73306 46.7938 11.1741 46.3185 11.8257C45.552 12.8682 46.8398 16.7162 47.2384 17.9579C47.0826 18.3797 47.0165 18.8293 47.0442 19.278C47.0719 19.7267 47.1929 20.1648 47.3994 20.5641C47.5422 20.973 47.66 21.3903 47.752 21.8136C47.4683 21.7523 47.1847 21.6679 47.0391 21.8136C44.9924 24.3508 29.3322 37.9107 24.4954 40.4479C24.5211 39.7333 24.4852 39.0178 24.3881 38.3093C24.3881 38.1637 24.2578 38.133 24.1428 38.087C24.2885 37.5351 24.4418 36.9449 24.5797 36.4467C25.3463 36.3163 25.8752 36.0481 26.6647 35.8871C27.0844 35.7895 27.4755 35.5952 27.8069 35.3197C28.1383 35.0443 28.4007 34.6952 28.5734 34.3004C28.857 33.6028 28.627 33.0279 28.7343 32.3151C28.7343 32.1464 29.3706 31.7938 29.0409 31.0886C28.9113 30.7487 28.707 30.4422 28.4431 30.1918C28.2483 30.0406 28.0615 29.8794 27.8835 29.7088C28.3357 29.5402 28.65 29.2949 28.4967 28.8197C28.0287 27.9933 27.5169 27.1924 26.9636 26.4204C26.7424 26.0835 26.5912 25.7055 26.5191 25.309C26.2738 24.3968 26.5651 24.5424 26.4577 23.7759C26.8597 23.5654 27.1785 23.225 27.3622 22.8101C27.3817 22.7667 27.3918 22.7197 27.3918 22.6721C27.3918 22.6245 27.3817 22.5775 27.3622 22.5341C27.5081 22.4822 27.6471 22.4127 27.7762 22.3272C28.3664 21.9362 28.1671 21.4533 27.6612 20.9781C28.696 20.0199 26.3964 17.8046 21.6976 18.6785C21.2447 18.8262 20.8017 19.0028 20.3715 19.2074C19.914 19.0366 19.4252 18.966 18.9381 19.0004C17.9546 19.1018 16.9997 19.3906 16.1249 19.8513C15.4657 20.2039 14.5229 21.3153 14.6838 22.1049C14.4331 22.1459 14.1932 22.2371 13.9786 22.3732C12.7062 23.3083 12.1236 25.056 13.2121 26.2058C13.1536 26.3306 13.1099 26.4618 13.0818 26.5967C12.9248 27.0703 12.8826 27.5744 12.9586 28.0675C13.0345 28.5605 13.2265 29.0285 13.5187 29.4329C13.9206 29.9284 14.4211 30.335 14.9886 30.6266C15.556 30.9182 16.1779 31.0886 16.8148 31.1269C16.7884 31.2244 16.7755 31.3249 16.7765 31.4259C16.7765 31.8091 16.5848 32.6753 17.0754 32.9589L17.2517 33.0203C17.0524 33.7868 16.6615 35.3199 16.6615 35.3199C15.9946 35.0746 15.895 34.9979 15.7876 35.1282C15.4362 35.4968 15.1532 35.9251 14.9521 36.393C12.5529 35.7031 5.73075 44.2499 3.13221 53.7932C1.53017 59.7798 -0.186863 77.2261 1.59915 78.8665C1.87149 79.1159 2.17255 79.3321 2.49599 79.5103C2.05907 84.9221 3.96007 90.6174 6.65826 95.3239C9.26446 99.9077 14.8525 135.774 16.9298 137.575C17.1624 137.718 17.4244 137.808 17.6963 137.836C17.3923 139.17 17.464 140.563 17.9033 141.86C17.9876 142.121 18.3632 142.251 18.6698 142.335C20.5631 142.895 26.2738 143.217 28.2514 142.619C28.65 142.496 29.1023 142.274 29.0869 141.852C28.9873 139.208 24.2425 139.553 23.4759 139.238C23.4914 138.818 23.5453 138.4 23.6369 137.989C23.9274 137.982 24.2159 137.938 24.4954 137.859C26.8487 136.824 32.0228 97.2939 32.6666 80.6678C33.4659 80.4928 34.2121 80.1302 34.8436 79.61C36.2003 79.61 38.247 78.9584 38.8142 77.709C38.8907 77.485 38.9076 77.245 38.8632 77.0125C38.8189 76.78 38.7148 76.563 38.5613 76.3829C42.1486 74.3133 44.6092 71.2471 44.7625 67.1079C44.8184 65.1602 44.4828 63.2211 43.7758 61.4054C43.0687 59.5897 42.0045 57.9344 40.6462 56.5374C38.2837 54.3001 35.2216 52.9464 31.9768 52.7048C31.7391 51.8309 31.4938 50.9877 31.2102 50.2059C34.5328 49.2709 37.543 47.4601 39.9257 44.9628C45.552 39.1448 50.2432 32.1847 52.0599 24.3355C52.7267 23.7146 53.5929 22.8484 54.4514 21.8826C58.5294 25.7152 80.1379 46.1509 82.1845 48.2129C82.3532 48.3739 82.5831 48.2129 82.7977 48.1362C83.2653 47.9216 112.133 32.9666 112.623 32.7596C116.663 33.7255 137.873 46.5572 142.748 49.2707C142.785 49.2859 142.824 49.2937 142.863 49.2937C142.903 49.2937 142.942 49.2859 142.978 49.2707C143.154 49.2171 142.978 49.5007 145.508 44.8708C145.914 44.5335 146.389 42.3413 146.481 41.8047C146.478 41.7523 146.462 41.7015 146.434 41.6572C146.405 41.6129 146.366 41.5766 146.32 41.5517ZM47.752 20.4032C47.1771 18.7628 47.3917 17.636 49.0781 17.2834C49.4776 17.1739 49.8903 17.1197 50.3045 17.1224C50.5115 17.1837 50.9637 17.3907 50.9331 17.4674C50.9165 17.5069 50.8867 17.5394 50.8487 17.5593C50.4415 17.7891 50.0023 17.9571 49.5456 18.0576C49.4381 18.065 49.3322 18.0882 49.2314 18.1266C48.8797 18.1921 48.544 18.3248 48.2425 18.5175C47.8669 18.8624 48.0509 19.5063 48.4112 19.8589C49.0091 20.4492 49.9442 20.0276 50.7108 19.7286C51.4773 19.4297 52.5504 18.9621 52.8111 19.238C53.0717 19.514 51.7609 20.1809 51.4466 20.7711C51.209 21.2157 51.4466 22.0972 51.3393 22.8944C50.4731 22.5954 48.9707 22.0819 48.0816 21.8289C48.0004 21.3475 47.8904 20.8714 47.752 20.4032ZM52.3511 18.5942C50.3428 19.1997 49.5533 19.8206 48.9477 19.606C48.8361 19.5535 48.7399 19.4729 48.6687 19.3722C48.5975 19.2714 48.5537 19.1539 48.5415 19.0311C48.4802 18.7168 49.0321 18.6555 49.4077 18.4792C49.7833 18.3029 50.1742 18.4792 50.8871 18.0653C51.09 17.9687 51.2488 17.7989 51.3317 17.59C51.9021 17.3531 52.492 17.1659 53.0947 17.0304L54.3595 17.3984L53.6772 18.1649L52.3511 18.5942ZM27.6075 45.4994C27.5615 44.9475 27.2473 44.7329 26.841 44.8862C26.4347 45.0395 25.7449 45.5684 25.7295 45.4841C25.7142 45.3997 25.7295 45.4841 25.7755 45.4841C25.3616 45.1851 14.4309 37.5275 13.8636 37.0829C13.9735 36.8971 14.1438 36.7546 14.3461 36.6793C14.5484 36.6039 14.7705 36.6003 14.9751 36.6689C18.0217 37.6934 20.9228 39.1079 23.6062 40.8772C28.2591 43.9433 29.5469 46.0436 31.2026 51.9382C30.6047 51.1717 30.0144 50.3592 29.4012 49.6386C28.2131 48.2282 27.8682 48.1976 27.6612 47.6993C27.5744 46.9693 27.5565 46.2328 27.6075 45.4994ZM26.0745 25.4239C26.1536 25.8664 26.3204 26.2886 26.5651 26.6657C27.0403 27.4323 27.9678 28.697 28.0368 28.9653C28.1058 29.2336 27.6152 29.2259 27.2703 29.4022C26.4577 29.2106 25.9672 29.7472 25.3386 29.8008C24.9323 29.8008 24.5721 29.7395 24.2195 29.7472C23.6216 29.7472 23.9359 29.8852 23.2536 29.8852C22.8014 29.8852 22.2112 29.8392 22.0732 29.8852C21.8049 29.8852 21.3756 30.0845 21 30.1381C20.6244 30.1918 20.5708 30.0921 20.4865 29.9541C19.9806 29.0803 19.2753 25.8379 18.8921 25.5006L18.4628 25.1403C18.0937 24.8659 17.8245 24.4782 17.6963 24.0365C17.6963 23.8066 17.7959 23.6073 18.1715 23.5153C19.1374 23.2777 19.9882 23.6992 20.9464 23.8909C22.4794 24.2128 24.5414 24.5271 26.0285 23.9445C26.0821 24.5194 25.8292 24.4811 26.0668 25.4239H26.0745ZM17.1827 27.0643C17.5353 27.1103 17.9493 27.2636 18.0412 27.6086C18.0412 27.9842 18.0412 28.8733 17.9952 29.2949C17.3744 29.2949 16.7841 28.5284 16.4622 27.9152C16.1402 27.3019 16.6462 26.9877 17.1751 27.0643H17.1827ZM18.1486 31.4105L18.3172 31.3262C18.2712 32.1304 18.2712 32.9366 18.3172 33.7408C18.5395 34.9289 18.7005 35.4502 20.1415 35.9637C21.3889 36.4405 22.7279 36.6292 24.0585 36.5156L23.6906 37.8801C23.4146 37.7651 17.1291 35.3888 17.1291 35.3888C17.1291 35.3888 17.5737 33.4112 18.1409 31.4105H18.1486ZM15.9946 35.4195C16.2246 35.5192 23.7749 38.4243 24.0048 38.4856C24.1504 39.244 24.2325 40.0132 24.2501 40.7852C21.4514 38.9586 18.4193 37.5174 15.2357 36.5003C15.4314 36.1049 15.6846 35.7407 15.9869 35.4195H15.9946ZM23.3686 137.974C23.2541 138.377 23.1797 138.79 23.1463 139.208C21.3911 139.346 19.6278 139.346 17.8726 139.208C17.8578 138.745 17.8758 138.281 17.9263 137.82C19.7311 138.013 21.5482 138.064 23.361 137.974H23.3686ZM38.293 77.4177C37.8944 78.2992 36.5376 78.8128 35.5871 78.9891C34.123 79.2727 32.7816 78.6672 31.4555 77.9466L34.1001 75.647C34.236 75.7999 34.3847 75.941 34.5446 76.0686C34.8972 76.3216 35.2345 76.1529 35.5488 75.854C36.139 75.2944 36.3153 74.5356 36.8672 74.7349C36.931 74.7583 36.9867 74.7998 37.0275 74.8542C37.0683 74.9086 37.0925 74.9736 37.0972 75.0415C36.7829 75.647 35.8477 76.7662 36.7216 77.1418C36.9777 77.2039 37.2452 77.2007 37.4997 77.1324C37.7542 77.0641 37.9875 76.9329 38.178 76.7508C38.2517 76.8509 38.3 76.9673 38.3187 77.0902C38.3374 77.213 38.3259 77.3386 38.2853 77.456L38.293 77.4177ZM20.5248 72.4199C21.503 73.4675 22.7096 74.2754 24.0508 74.7809C26.611 76.3829 28.949 77.6477 30.0068 78.1996C23.108 78.0003 16.5925 75.3557 15.8796 68.388C17.275 69.8987 18.8328 71.2509 20.5248 72.4199ZM26.8947 61.2209C27.7608 60.3854 29.1943 60.1554 30.3517 60.0251C30.2981 61.9721 30.3517 63.2446 30.459 65.2299L29.7768 65.0842C28.977 63.8842 28.0206 62.7964 26.933 61.8495C26.8947 61.7345 26.8947 61.5199 26.8947 61.2209ZM30.9726 65.8814C32.7356 66.2417 35.2575 66.7476 35.7481 68.3803C36.2387 70.013 34.9816 71.0632 33.4485 71.6457C30.7273 65.8661 31.1259 68.112 31.0033 65.8814H30.9726ZM33.6631 72.075C35.4721 71.4234 36.7906 70.0897 36.2463 68.2423C35.7021 66.395 33.0269 65.7511 30.9803 65.3372C30.8806 63.4899 30.7656 61.4049 30.689 59.9715C33.9314 59.7262 34.583 60.8147 34.7439 60.5387C34.7579 60.5143 34.7618 60.4853 34.7546 60.458C34.7474 60.4308 34.7298 60.4075 34.7056 60.3931C33.459 59.7679 32.0628 59.5024 30.6737 59.6265C30.6737 58.9827 30.62 58.5304 30.62 58.3924C30.62 58.364 30.6087 58.3367 30.5886 58.3165C30.5684 58.2964 30.5411 58.2851 30.5127 58.2851C30.4842 58.2851 30.4569 58.2964 30.4368 58.3165C30.4167 58.3367 30.4054 58.364 30.4054 58.3924C30.4054 58.745 30.4054 59.159 30.3594 59.6495C29.1523 59.6508 27.9682 59.9793 26.933 60.6C26.933 59.5652 26.9943 58.0092 26.933 56.1695C30.666 55.2726 35.1579 55.9549 38.017 58.722C39.0647 59.7757 39.8902 61.0289 40.4446 62.4075C40.9989 63.7861 41.2708 65.262 41.2441 66.7476C41.1061 70.5113 38.2623 73.1251 34.7593 74.5432C34.629 74.1523 34.2457 73.2401 33.6938 72.075H33.6631ZM44.5249 67.0542C44.3562 71.6534 41.1061 74.8268 36.9975 76.7048C36.8979 76.7048 36.8826 76.6512 36.9056 76.5592C36.9822 76.0993 37.6184 75.4017 37.5954 75.0721C37.5839 74.9106 37.5268 74.7557 37.431 74.6252C37.3351 74.4947 37.2042 74.3939 37.0536 74.3346C36.9029 74.2753 36.7385 74.2598 36.5794 74.29C36.4203 74.3201 36.2729 74.3946 36.1544 74.5049C35.8784 74.7349 35.3878 75.831 34.9202 75.9077C34.7439 75.9077 34.5446 75.7237 34.307 75.5091C34.8742 75.0261 34.8896 75.0338 34.9126 74.9265C38.5459 73.3934 41.3668 70.7182 41.5124 66.7476C41.5536 65.2242 41.2915 63.7079 40.7415 62.2867C40.1914 60.8655 39.3643 59.5678 38.3083 58.4691C35.4032 55.5563 30.8346 54.7897 26.956 55.6636C26.956 54.8127 26.91 54.1305 26.864 53.364C31.3942 52.5055 36.8289 53.41 40.3396 56.8057C41.6913 58.1442 42.7587 59.7419 43.4779 61.5029C44.1971 63.264 44.5532 65.1522 44.5249 67.0542ZM26.8947 52.8121C26.8103 51.463 26.6724 50.0526 26.4654 48.6422C26.4654 48.6137 26.4541 48.5864 26.434 48.5663C26.4138 48.5461 26.3866 48.5348 26.3581 48.5348C26.3296 48.5348 26.3023 48.5461 26.2822 48.5663C26.2621 48.5864 26.2508 48.6137 26.2508 48.6422C27.1629 55.6176 26.2508 61.7575 26.6724 62.1024C29.7385 64.6243 32.8736 71.0862 34.3837 74.7502L30.735 77.9083C26.657 75.808 17.704 70.6722 15.3124 66.7169C13.8146 64.3274 12.6733 61.7322 11.9243 59.0133C10.6059 53.9619 11.5794 50.4818 11.0811 50.5048C11.0667 50.5047 11.0523 50.5076 11.0391 50.5136C11.0259 50.5195 11.0141 50.5283 11.0046 50.5392C10.9952 50.5501 10.9882 50.563 10.9842 50.5769C10.9802 50.5909 10.9793 50.6055 10.9815 50.6198C11.0428 52.3215 10.5906 55.104 11.5794 59.1053C12.3656 62.1337 13.6421 65.013 15.3584 67.6291C15.642 74.045 20.2948 77.3641 26.7107 78.3605C28.4578 78.6266 30.2279 78.7088 31.9921 78.6058C34.0081 79.748 34.4986 79.3187 34.0081 79.5947C29.4089 82.1012 6.08336 82.6608 1.77545 78.6825C0.135079 77.2338 1.83678 60.1554 3.56914 53.9082C5.16352 48.1439 9.60173 39.85 13.6873 37.2362C16.6155 39.5358 25.032 45.507 25.4689 45.9056C25.9058 46.3042 26.588 45.3921 27.002 45.3614C27.1783 45.3614 26.8563 47.1857 27.1016 47.8756C27.3469 48.5655 27.7608 48.5808 28.9336 49.9759C29.6312 50.7961 30.2827 51.7159 30.9726 52.5821C29.588 52.4914 28.1975 52.5738 26.8333 52.8274L26.8947 52.8121ZM39.6957 44.6715C37.3779 47.1485 34.4405 48.9612 31.1872 49.9223C30.6619 48.0834 29.8579 46.3359 28.8033 44.7405C27.5931 43.2524 26.1607 41.9597 24.5567 40.9079V40.6702C29.5469 38.2557 44.8315 25.2783 47.453 22.1892C48.8994 22.5592 50.3225 23.0148 51.7149 23.5536C49.9366 31.6098 45.2914 38.6926 39.6344 44.6869L39.6957 44.6715ZM142.832 48.5885C138.417 46.0819 116.701 33.0126 112.723 32.1617C112.449 32.2004 112.187 32.3 111.957 32.453C110.998 32.9206 82.9204 47.5843 82.5218 47.7836C80.3602 45.7217 58.56 25.3166 54.4898 21.5453H54.3135C53.5469 22.4115 52.7804 23.1933 52.1442 23.8449C52.2285 23.4233 52.3282 23.3313 51.5923 23.0324C51.7686 22.2198 51.5923 21.3 51.7686 20.9934C52.0292 20.5641 52.9337 20.1579 53.225 19.6826C53.3075 19.5662 53.3438 19.4233 53.3268 19.2816C53.3098 19.14 53.2407 19.0097 53.133 18.9161C53.8995 18.6785 53.8995 18.6938 53.9609 18.6172C54.0222 18.5405 54.7887 17.613 54.896 17.4597C54.9203 17.4293 54.9369 17.3936 54.9447 17.3555C54.9524 17.3174 54.951 17.278 54.9405 17.2406C54.93 17.2032 54.9108 17.1688 54.8844 17.1402C54.858 17.1117 54.8252 17.0898 54.7887 17.0764C54.1941 16.9099 53.59 16.7793 52.9797 16.6855C51.186 17.2681 51.4466 17.3524 51.37 17.2681C51.1434 16.9545 50.8066 16.7381 50.4272 16.6625C49.9257 16.6213 49.4211 16.6759 48.9401 16.8235C48.3794 16.9195 47.8625 17.1873 47.4607 17.59C47.1387 16.5858 45.9889 12.8835 46.5945 12.0327C47.2001 11.1818 51.1094 11.5497 52.1748 11.6724C54.7999 11.9424 57.3943 12.4556 59.9245 13.2054C60.1433 13.2716 60.3521 13.367 60.5454 13.4891C60.2924 14.2556 58.2458 16.7928 57.7092 17.4137C57.6703 17.4537 57.6486 17.5074 57.6486 17.5632C57.6486 17.619 57.6703 17.6726 57.7092 17.7126C84.806 43.3914 83.0047 42.2876 83.4723 42.1496C84.6221 41.774 110.623 27.7542 112.846 27.0643C114.977 27.6775 142.978 43.5984 144.871 44.6945L142.832 48.5885Z" fill="black"/>
<path fill-rule="evenodd" clip-rule="evenodd" d="M98.8873 25.1326C100.484 23.5415 101.676 21.59 102.362 19.4423C103.047 17.2946 103.207 15.0137 102.827 12.7914C102.061 7.93164 98.7186 3.81537 95.1619 2.129C93.1337 1.26269 90.9908 0.694673 88.7997 0.442636C87.0935 0.331622 85.3808 0.507818 83.733 0.963877C79.0571 2.69624 76.3666 4.61256 74.182 9.0891C73.3053 11.4262 72.9065 13.9155 73.0092 16.4095C74.7569 29.3025 90.6011 33.1582 98.8873 25.1326ZM74.6266 9.30373C76.7039 4.90384 79.3254 3.01051 83.8249 1.25516C85.4206 0.797723 87.0802 0.603543 88.7384 0.68026C90.9018 0.937553 93.012 1.52975 94.9933 2.43562C98.3814 4.10665 101.555 8.11561 102.291 12.8758C102.641 15.01 102.476 17.197 101.809 19.2544C101.142 21.3118 99.9933 23.1801 98.458 24.7033C90.5168 32.3916 75.2705 28.7276 73.5534 16.3405C73.4549 13.9477 73.8193 11.5584 74.6266 9.30373Z" fill="black"/>
<path fill-rule="evenodd" clip-rule="evenodd" d="M97.017 23.3618C98.3391 22.038 99.3248 20.4166 99.8916 18.6336C100.458 16.8505 100.59 14.9576 100.275 13.1133C99.9684 11.2491 99.2355 9.48075 98.1333 7.94636C97.031 6.41196 95.5891 5.15296 93.9202 4.26757C92.2429 3.55547 90.472 3.08821 88.6618 2.88015C87.2504 2.78507 85.8331 2.92758 84.4689 3.30174C80.6362 4.71982 78.3826 6.30654 76.5659 10.0395C75.8342 11.9794 75.5006 14.0466 75.5848 16.1181C77.0258 26.8342 90.1489 30.046 97.017 23.3618ZM77.0029 10.2618C78.7199 6.61315 80.8815 5.05709 84.5838 3.61602C85.8947 3.23406 87.2595 3.0709 88.6235 3.1331C90.4056 3.34888 92.1433 3.84021 93.7745 4.58951C95.3643 5.47291 96.7304 6.7088 97.7682 8.20233C98.806 9.69586 99.4877 11.4073 99.7611 13.2053C100.053 14.9597 99.9225 16.7582 99.3813 18.4523C98.8402 20.1464 97.9036 21.6874 96.649 22.9479C90.0569 29.3255 77.5778 26.2057 76.1673 16.0491C76.072 14.0843 76.3556 12.1195 77.0029 10.2618Z" fill="black"/>
<path fill-rule="evenodd" clip-rule="evenodd" d="M88.0178 14.4166C88.2631 19.8897 88.3091 20.1426 88.4777 22.2123C87.8087 22.2055 87.1407 22.1594 86.4771 22.0743C85.6021 22.0246 84.7558 21.7443 84.0242 21.2618C83.796 21.1227 83.6021 20.9341 83.4569 20.7099C83.3573 20.5336 82.8514 20.7099 83.8632 21.4764C84.6196 22.0115 85.5016 22.3416 86.4234 22.4346C87.116 22.5477 87.8148 22.6194 88.516 22.6492C88.5773 23.4157 88.6463 24.1056 88.6617 24.3662C88.6684 24.3926 88.6838 24.416 88.7053 24.4327C88.7268 24.4494 88.7532 24.4584 88.7805 24.4584C88.8077 24.4584 88.8342 24.4494 88.8557 24.4327C88.8772 24.416 88.8925 24.3926 88.8993 24.3662V22.6568C91.8504 22.5649 94.6789 20.5336 93.9431 17.4674C93.3912 15.1678 90.8769 14.5163 88.5773 13.9491C88.47 11.6495 88.3551 9.10458 88.2784 7.38755C88.9315 7.3167 89.5909 7.32957 90.2407 7.42588C91.9807 7.69417 92.1724 8.33805 92.341 8.09276C92.3524 8.08269 92.3616 8.07031 92.3678 8.05643C92.3741 8.04255 92.3773 8.0275 92.3773 8.01228C92.3773 7.99705 92.3741 7.982 92.3678 7.96812C92.3616 7.95425 92.3524 7.94186 92.341 7.93179C91.1328 7.17991 89.7099 6.84844 88.2937 6.98896C88.2937 6.22243 88.2324 5.63986 88.2401 5.4559C88.2401 5.42337 88.2272 5.39217 88.2042 5.36917C88.1812 5.34617 88.15 5.33325 88.1174 5.33325C88.0849 5.33325 88.0537 5.34617 88.0307 5.36917C88.0077 5.39217 87.9948 5.42337 87.9948 5.4559C87.9948 5.89282 87.9948 6.42173 87.9411 6.98896C86.8627 7.02342 85.8095 7.32358 84.875 7.8628C83.5336 8.75198 82.6214 10.8523 83.6715 12.2933C84.5301 13.5351 86.569 14.0564 88.0178 14.4166ZM93.3835 17.6131C94.0427 20.2499 91.4825 22.0436 88.8993 22.2123C88.8303 18.3796 88.8533 19.1461 88.6463 14.5469C90.5933 15.0605 92.8699 15.6967 93.3452 17.6131H93.3835ZM83.9552 9.94777C84.5837 8.20774 86.0631 7.64817 87.9411 7.45654C87.8798 9.91711 88.0254 13.7498 88.0331 13.8341C85.4882 13.1749 83.0353 12.3623 83.9168 9.9171L83.9552 9.94777ZM23.8285 24.5348C22.878 24.6192 22.4717 25.355 22.6327 25.447C22.7937 25.539 23.1846 25.1251 23.8745 25.0638C24.3106 25.0263 24.7491 25.0263 25.1853 25.0638C25.6069 25.0024 24.7713 24.4505 23.8285 24.5348ZM25.1623 26.1062C25.164 26.0357 25.143 25.9665 25.1025 25.9088C25.0619 25.8511 25.0039 25.8079 24.937 25.7856C24.8701 25.7633 24.7978 25.763 24.7307 25.7849C24.6636 25.8067 24.6053 25.8495 24.5644 25.9069C24.4034 26.1446 24.6257 26.5048 24.6717 26.7731C24.6717 26.8605 24.7064 26.9444 24.7682 27.0062C24.83 27.068 24.9139 27.1027 25.0013 27.1027C25.0887 27.1027 25.1726 27.068 25.2344 27.0062C25.2962 26.9444 25.3309 26.8605 25.3309 26.7731C25.2937 26.5464 25.2373 26.3233 25.1623 26.1062Z" fill="black"/>
</svg>
